# xmcd CD database file
#
# Track frame offsets:
#	150
#	16960
#	38958
#	56208
#
# Disc length: 1074 seconds
#
# Revision: 0
# Processed by: cddbd v1.5.1PL0 Copyright (c) Steve Scherf et al.
# Submitted via: CDex 1.51
#
DISCID=2f043004
DTITLE=サンボマスター - 月に咲く花のようになるの
DYEAR=2004
DGENRE=Rock
TTITLE0=月に咲く花のようになるの
TTITLE1=手紙(キングオブソウルミックス)
TTITLE2=愛しき日々(ナッシュビル・スカイラインバージョン)
TTITLE3=人はそれを情熱と呼ぶ(ライブバージョン)
EXTD=YEAR: 2004
EXTT0=
EXTT1=
EXTT2=
EXTT3=
PLAYORDER=
